<svg viewBox="0 0 540.82 122.62" xmlns="http://www.w3.org/2000/svg">
  <circle fill="#EE842F" cx="76.38" cy="51.38" r="51.38"/>
  <g><path fill="#133446" d="M119.77,110.91l-13.91-4.03c-4.61-3.98-10.04-8.05-18.31-12.45,7.09-8.52,12.69-18.88,17.21-30.57,1.38-2.7,2.51-5.46,3.4-8.28l-6.42,2.33,7.74-7.22c1.36-6.19,1.7-12.63,1.25-19.27-.04-.63-.76-.97-1.27-.6-10.5,7.51-20.36,15.39-29.4,23.73-3.49,3.21-6.85,6.5-10.07,9.86-2.3,8.27-6.08,15.75-11.17,22.52l-7.51,1.35-8.78,1.58-20.14-2.93c-4.58-2.54-8.56-2.83-11.72,0l-10.38,1.98c-.37.07-.39.6-.02.69,1.73.44,5.17,1.21,8.47,3,4.11,2.23,10.68,2.88,13.45,1.6.53-.24,1.11-.34,1.68-.26l11.2,1.56c.64.09,1.25.27,1.83.55l8.28,3.97c12.65,6.44,25.02,10.95,36.89,11.81l16.48,1.28,16.48,2.56c6.14.5,9.06-3.39,4.76-4.76Z"/><path fill="#fff" d="M76.16,52.76c-1.49-4.77-4.98-10.91-6.52-13.5l-3.51,5.56,2.66-7.1-1.74-5.16c-.27-.79-1.33-.93-1.79-.24-6.49,9.68-11.98,18.89-13.69,26.32-2.67,3.3-2.81,6.82,0,10.62,2.53,7.4,1.97,13.42-1.2,18.28l7.51-1.35c5.08-6.77,8.86-14.24,11.17-22.52,2.53-2.63,3.73-3.94,5.81-5.93,1.34-1.28,1.85-3.22,1.3-4.99Z"/></g>
  <g fill="#FFFFFF"><path d="M166.54,28.68h11.68v49.53h-11.68V28.68Z"/><path d="M189.67,28.68h14.42l18.56,32.9V28.68h11.46v49.53h-14.34l-18.63-32.97v32.97h-11.46V28.68Z"/><path d="M256.58,38.59h-15.67v-9.91h42.95v9.91h-15.67v39.62h-11.61v-39.62Z"/><path d="M290.66,28.68h36.37v10.35h-24.69v10.05h20.33v8.87h-20.33v9.91h24.69v10.35h-36.37V28.68Z"/><path d="M358,28.68c6.46,0,11.41,1.38,14.86,4.14,3.45,2.76,5.17,6.68,5.17,11.75,0,3.55-.85,6.53-2.55,8.94-1.7,2.42-4.15,4.24-7.36,5.47l11.02,19.22h-13.16l-9.61-17.52h-8.28v17.52h-11.68V28.68h21.59ZM357.93,51.75c2.71,0,4.78-.55,6.21-1.66,1.43-1.11,2.14-2.65,2.14-4.62s-.72-3.59-2.14-4.69c-1.43-1.11-3.5-1.66-6.21-1.66h-9.83v12.64h9.83Z"/><path d="M409.09,28.68c3.15,0,5.99.43,8.5,1.29,2.51.86,4.66,2.08,6.43,3.66,1.77,1.58,3.13,3.5,4.07,5.77.94,2.27,1.4,4.78,1.4,7.54s-.47,5.25-1.4,7.47c-.94,2.22-2.29,4.1-4.07,5.66-1.77,1.55-3.92,2.75-6.43,3.59-2.51.84-5.35,1.26-8.5,1.26h-9.46v13.31h-11.68V28.68h21.14ZM408.35,54.63c2.91,0,5.16-.68,6.76-2.03,1.6-1.35,2.4-3.22,2.4-5.58s-.8-4.3-2.4-5.66c-1.6-1.35-3.86-2.03-6.76-2.03h-8.72v15.3h8.72Z"/><path d="M459.43,28.68c6.46,0,11.41,1.38,14.86,4.14,3.45,2.76,5.17,6.68,5.17,11.75,0,3.55-.85,6.53-2.55,8.94-1.7,2.42-4.15,4.24-7.36,5.47l11.02,19.22h-13.16l-9.61-17.52h-8.28v17.52h-11.68V28.68h21.59ZM459.36,51.75c2.71,0,4.78-.55,6.21-1.66,1.43-1.11,2.14-2.65,2.14-4.62s-.72-3.59-2.14-4.69c-1.43-1.11-3.5-1.66-6.21-1.66h-9.83v12.64h9.83Z"/><path d="M486.78,53.45c0-3.65.65-7.02,1.96-10.13,1.3-3.1,3.1-5.79,5.4-8.06,2.29-2.27,5.01-4.05,8.17-5.36,3.15-1.31,6.55-1.96,10.2-1.96s7.11.64,10.24,1.92c3.13,1.28,5.84,3.07,8.13,5.36,2.29,2.29,4.09,4.99,5.4,8.1,1.3,3.1,1.96,6.48,1.96,10.13s-.65,7.02-1.96,10.13c-1.31,3.1-3.11,5.8-5.4,8.1-2.29,2.29-5,4.08-8.13,5.36-3.13,1.28-6.54,1.92-10.24,1.92s-7.05-.64-10.2-1.92c-3.15-1.28-5.88-3.07-8.17-5.36-2.29-2.29-4.09-4.99-5.4-8.1-1.31-3.1-1.96-6.48-1.96-10.13ZM498.76,53.37c0,2.02.34,3.91,1.04,5.66.69,1.75,1.65,3.25,2.88,4.51,1.23,1.26,2.69,2.24,4.36,2.96,1.67.71,3.5,1.07,5.47,1.07s3.79-.36,5.47-1.07c1.67-.71,3.13-1.7,4.36-2.96,1.23-1.26,2.19-2.76,2.88-4.51.69-1.75,1.04-3.63,1.04-5.66s-.34-3.88-1.04-5.58c-.69-1.7-1.65-3.18-2.88-4.44-1.23-1.26-2.69-2.24-4.36-2.96-1.68-.71-3.5-1.07-5.47-1.07s-3.8.36-5.47,1.07c-1.68.72-3.13,1.7-4.36,2.96-1.23,1.26-2.19,2.74-2.88,4.44-.69,1.7-1.04,3.56-1.04,5.58Z"/></g>
  <g fill="rgba(255,255,255,0.6)"><path d="M176.4,92.78c1.53,0,2.91.2,4.13.59,1.22.39,2.26.95,3.13,1.67.86.72,1.52,1.6,1.98,2.64.46,1.04.68,2.19.68,3.45s-.23,2.4-.68,3.41c-.46,1.01-1.11,1.88-1.98,2.59-.86.71-1.9,1.26-3.13,1.64-1.22.38-2.6.57-4.13.57h-4.6v6.08h-5.68v-22.64h10.28ZM176.04,104.64c1.41,0,2.51-.31,3.29-.93.78-.62,1.17-1.47,1.17-2.55s-.39-1.97-1.17-2.59c-.78-.62-1.87-.93-3.29-.93h-4.24v7h4.24Z"/><path d="M194.15,92.78h5.68v22.64h-5.68v-22.64Z"/><path d="M219.45,92.78c1.53,0,2.91.2,4.13.59,1.22.39,2.26.95,3.13,1.67.86.72,1.52,1.6,1.98,2.64.46,1.04.68,2.19.68,3.45s-.23,2.4-.68,3.41c-.46,1.01-1.11,1.88-1.98,2.59-.86.71-1.9,1.26-3.13,1.64-1.22.38-2.6.57-4.13.57h-4.6v6.08h-5.68v-22.64h10.28ZM219.09,104.64c1.41,0,2.51-.31,3.29-.93.78-.62,1.17-1.47,1.17-2.55s-.39-1.97-1.17-2.59c-.78-.62-1.87-.93-3.29-.93h-4.24v7h4.24Z"/><path d="M237.2,92.78h17.68v4.73h-12v4.6h9.88v4.06h-9.88v4.53h12v4.73h-17.68v-22.64Z"/><path d="M275.25,103.76h4.99v-4.7h4.31v4.7h4.96v4.06h-4.96v4.66h-4.31v-4.66h-4.99v-4.06Z"/><path d="M310.43,99.47c0-2.25.82-3.99,2.46-5.2,1.64-1.22,3.98-1.83,7.02-1.83s5.48.65,7.1,1.96c1.62,1.31,2.45,3.13,2.5,5.47h-5.61c-.02-1.01-.39-1.79-1.1-2.31-.71-.53-1.73-.79-3.07-.79-1.17,0-2.08.21-2.73.64-.65.43-.97,1.01-.97,1.76,0,.47.13.87.4,1.2s.62.6,1.06.83c.44.23.96.41,1.54.56.59.15,1.2.28,1.85.39,1.01.2,2.05.42,3.13.66,1.08.24,2.07.59,2.96,1.06s1.63,1.1,2.21,1.89c.57.79.86,1.84.86,3.14,0,2.07-.81,3.73-2.43,4.98-1.62,1.25-4.1,1.88-7.46,1.88s-6-.66-7.71-1.99c-1.71-1.33-2.57-3.13-2.57-5.41h5.61c.09,1.01.54,1.79,1.35,2.31s1.92.79,3.36.79c1.29,0,2.29-.21,3-.64.71-.43,1.06-1.01,1.06-1.76,0-.47-.14-.86-.41-1.17-.28-.3-.65-.56-1.13-.76s-1.04-.37-1.67-.49c-.63-.12-1.3-.24-1.99-.35-.98-.18-1.98-.38-3-.61-1.02-.23-1.95-.58-2.79-1.06s-1.52-1.13-2.05-1.94c-.53-.81-.79-1.88-.79-3.21Z"/><path d="M343.59,97.31h-7.62v-4.53h20.88v4.53h-7.62v18.11h-5.64v-18.11Z"/><path d="M363.93,92.78h17.68v4.73h-12v4.6h9.88v4.06h-9.88v4.53h12v4.73h-17.68v-22.64Z"/><path d="M389.95,92.78h17.68v4.73h-12v4.6h9.88v4.06h-9.88v4.53h12v4.73h-17.68v-22.64Z"/><path d="M415.96,92.78h5.68v17.91h10.17v4.73h-15.85v-22.64Z"/></g>
</svg>
