<svg viewBox="0 0 567.17 83.08" xmlns="http://www.w3.org/2000/svg">
  <path fill="#fcb53f" d="M55.14,63.18l2.59-5.73,2.23,3.16,2.46,3.49c7.76-6.69,12.67-16.58,12.67-27.63C75.09,16.33,58.76,0,38.62,0S2.14,16.33,2.14,36.48c0,11.78,5.6,22.23,14.26,28.9l2.03-3.16,3.57-5.55,1.29-2.21,6.11,5.61,4.36-8.08.88,2.41-.08-4.47,5.43-9.13,4.4,7.34,2.85,2.03,8.39,11.9-.5,1.1h0s-.3.66-.3.66l-.36.79.78-1.74-.08.77-.04-.48Z"/>
  <g><polygon fill="#102b45" points="22 56.67 18.43 62.21 16.4 65.37 15.86 66.21 16.86 66.07 17.1 65.92 19.24 64.54 17.72 66.35 9.24 76.35 15.86 66.21 12.3 66.13 0 82.54 17.27 82.54 26.21 65.97 27.78 63.06 29.4 60.07 23.29 54.46 22 56.67"/><polygon fill="#102b45" points="54.48 64.62 54.84 63.83 55.14 63.17 55.14 63.17 55.63 62.07 47.24 50.17 44.39 48.14 39.99 40.79 34.56 49.93 34.63 54.4 33.75 51.99 29.4 60.07 33.07 56.91 30.3 62.05 31.6 62.08 32.49 62.1 34.57 57.66 35.16 56.4 37.31 51.83 39.51 49.88 37.01 58.92 39.33 57.04 36.27 67.89 35.56 70.41 30.76 74.35 37.9 71.89 34.21 78.75 38.72 82.54 46.39 82.54 54.39 64.81 54.48 64.62"/><polygon fill="#102b45" points="72.72 78.9 66.39 67.74 64.08 66.45 62.42 64.1 59.96 60.61 57.73 57.45 55.14 63.18 55.18 63.66 55.38 65.9 55.6 68.42 55.62 68.4 55.73 68.28 58.65 64.98 56.54 71.75 55.21 75.97 54.49 81.36 51.54 76.66 47 81.19 46.39 82.54 75.58 82.54 72.72 78.9"/></g>
  <g fill="#FFFFFF"><path d="M113.43,18.51c4.58,0,8.1.98,10.55,2.94,2.45,1.96,3.67,4.74,3.67,8.35,0,2.52-.6,4.64-1.81,6.35-1.21,1.71-2.95,3.01-5.22,3.88l7.82,13.65h-9.34l-6.82-12.44h-5.88v12.44h-8.29V18.51h15.33ZM113.37,34.88c1.92,0,3.39-.39,4.41-1.18,1.01-.79,1.52-1.88,1.52-3.28s-.51-2.55-1.52-3.33c-1.02-.79-2.48-1.18-4.41-1.18h-6.98v8.98h6.98Z"/><path d="M131.8,36.09c0-2.59.46-4.99,1.39-7.19.93-2.2,2.2-4.11,3.83-5.72,1.63-1.61,3.56-2.88,5.8-3.81,2.24-.93,4.65-1.39,7.24-1.39s5.05.46,7.27,1.36c2.22.91,4.15,2.18,5.77,3.81s2.9,3.54,3.83,5.75c.93,2.2,1.39,4.6,1.39,7.19s-.46,4.99-1.39,7.19c-.93,2.2-2.2,4.12-3.83,5.75-1.63,1.63-3.55,2.9-5.77,3.81-2.22.91-4.65,1.36-7.27,1.36s-5-.46-7.24-1.36c-2.24-.91-4.17-2.18-5.8-3.81s-2.9-3.54-3.83-5.75c-.93-2.2-1.39-4.6-1.39-7.19ZM140.3,36.04c0,1.44.24,2.77.73,4.02.49,1.24,1.17,2.31,2.05,3.2.87.89,1.91,1.59,3.1,2.1,1.19.51,2.48.76,3.88.76s2.69-.25,3.88-.76c1.19-.51,2.22-1.21,3.1-2.1.87-.89,1.56-1.96,2.05-3.2.49-1.24.73-2.58.73-4.02s-.25-2.76-.73-3.96c-.49-1.21-1.17-2.26-2.05-3.15-.88-.89-1.91-1.59-3.1-2.1-1.19-.51-2.49-.76-3.88-.76s-2.69.25-3.88.76c-1.19.51-2.22,1.21-3.1,2.1-.88.89-1.56,1.94-2.05,3.15-.49,1.21-.73,2.53-.73,3.96Z"/><path d="M171.74,36.09c0-2.52.45-4.88,1.36-7.09.91-2.2,2.16-4.12,3.75-5.75,1.59-1.63,3.49-2.91,5.69-3.86s4.6-1.42,7.19-1.42c2.31,0,4.45.33,6.43,1,1.98.67,3.73,1.62,5.25,2.86,1.52,1.24,2.77,2.75,3.75,4.51.98,1.77,1.63,3.74,1.94,5.9h-8.77c-.6-1.96-1.69-3.51-3.28-4.65-1.59-1.14-3.39-1.71-5.38-1.71-1.33,0-2.57.26-3.73.79s-2.15,1.24-2.99,2.15c-.84.91-1.5,1.99-1.99,3.23-.49,1.24-.73,2.58-.73,4.02s.24,2.77.73,4.02c.49,1.24,1.15,2.32,1.99,3.23.84.91,1.84,1.63,2.99,2.15s2.4.79,3.73.79c1.99,0,3.79-.57,5.38-1.71,1.59-1.14,2.69-2.69,3.28-4.65h8.77c-.31,2.17-.96,4.14-1.94,5.9-.98,1.77-2.23,3.27-3.75,4.51-1.52,1.24-3.27,2.2-5.25,2.86-1.98.66-4.12,1-6.43,1-2.59,0-4.99-.47-7.19-1.42-2.2-.94-4.1-2.23-5.69-3.86-1.59-1.63-2.84-3.54-3.75-5.75-.91-2.2-1.36-4.57-1.36-7.09Z"/><path d="M243.33,53.67h-9.92l-10.02-13.8h-2.99v13.8h-8.29V18.51h8.29v14.01h3.04l9.87-14.01h9.13l-12.28,17.27,13.17,17.9Z"/><path d="M253.2,18.51l8.19,15.59,8.19-15.59h9.4l-13.44,23.99v11.18h-8.29v-11.18l-13.44-23.99h9.4Z"/><path d="M295.61,18.51h11.5l8.03,19.26,8.03-19.26h11.5v35.17h-8.14v-25.09l-7.56,18.37h-7.72l-7.51-18.37v25.09h-8.14V18.51Z"/><path d="M339.91,36.09c0-2.59.46-4.99,1.39-7.19s2.21-4.11,3.83-5.72c1.63-1.61,3.56-2.88,5.8-3.81,2.24-.93,4.65-1.39,7.24-1.39s5.05.46,7.27,1.36c2.22.91,4.15,2.18,5.77,3.81,1.63,1.63,2.9,3.54,3.83,5.75.93,2.2,1.39,4.6,1.39,7.19s-.46,4.99-1.39,7.19c-.93,2.2-2.21,4.12-3.83,5.75s-3.55,2.9-5.77,3.81c-2.22.91-4.65,1.36-7.27,1.36s-5-.46-7.24-1.36c-2.24-.91-4.17-2.18-5.8-3.81s-2.91-3.54-3.83-5.75c-.93-2.2-1.39-4.6-1.39-7.19ZM348.41,36.04c0,1.44.24,2.77.74,4.02.49,1.24,1.17,2.31,2.05,3.2.87.89,1.91,1.59,3.1,2.1,1.19.51,2.48.76,3.88.76s2.69-.25,3.88-.76c1.19-.51,2.22-1.21,3.1-2.1.88-.89,1.56-1.96,2.05-3.2.49-1.24.74-2.58.74-4.02s-.25-2.76-.74-3.96c-.49-1.21-1.17-2.26-2.05-3.15-.88-.89-1.91-1.59-3.1-2.1-1.19-.51-2.48-.76-3.88-.76s-2.7.25-3.88.76c-1.19.51-2.22,1.21-3.1,2.1-.88.89-1.56,1.94-2.05,3.15-.49,1.21-.74,2.53-.74,3.96Z"/><path d="M396.7,54.2c-4.9,0-8.69-1.24-11.36-3.73-2.68-2.48-4.02-6.05-4.02-10.71v-21.26h8.29v20.73c0,2.34.59,4.17,1.78,5.48,1.19,1.31,2.96,1.97,5.3,1.97s4.05-.66,5.22-1.97c1.17-1.31,1.76-3.14,1.76-5.48v-20.73h8.29v21.26c0,4.65-1.32,8.22-3.96,10.71-2.64,2.48-6.41,3.73-11.31,3.73Z"/><path d="M418.64,18.51h10.24l13.17,23.36v-23.36h8.14v35.17h-10.18l-13.23-23.41v23.41h-8.14V18.51Z"/><path d="M465.09,25.54h-11.13v-7.03h30.5v7.03h-11.13v28.13h-8.24v-28.13Z"/><path d="M493.59,18.51h9.92l12.91,35.17h-8.24l-2.36-6.51h-14.54l-2.36,6.51h-8.24l12.91-35.17ZM503.66,40.92l-5.09-14.12-5.14,14.12h10.24Z"/><path d="M520.25,18.51h8.29v35.17h-8.29V18.51Z"/><path d="M535.63,18.51h10.24l13.17,23.36v-23.36h8.14v35.17h-10.18l-13.23-23.41v23.41h-8.14V18.51Z"/></g>
  <g fill="rgba(255,255,255,0.6)"><path d="M98.12,71.51c0-1.6.58-2.83,1.75-3.7s2.83-1.3,4.99-1.3,3.89.46,5.04,1.39,1.74,2.22,1.77,3.89h-3.98c-.02-.72-.28-1.27-.78-1.64-.5-.38-1.23-.56-2.18-.56-.83,0-1.48.15-1.94.46-.46.3-.69.72-.69,1.25,0,.34.09.62.28.85.19.23.44.43.75.59.31.16.68.29,1.1.4.42.1.85.2,1.31.28.71.14,1.45.3,2.22.47.77.17,1.47.42,2.1.76.64.34,1.16.78,1.57,1.34.41.56.61,1.3.61,2.23,0,1.47-.57,2.65-1.72,3.54s-2.91,1.33-5.29,1.33-4.26-.47-5.47-1.42c-1.22-.94-1.82-2.22-1.82-3.84h3.98c.07.72.39,1.27.96,1.64.57.38,1.36.56,2.39.56.92,0,1.63-.15,2.13-.46.5-.3.75-.72.75-1.25,0-.34-.1-.61-.29-.83-.2-.22-.46-.4-.8-.54s-.74-.26-1.19-.35c-.45-.09-.92-.17-1.42-.25-.7-.13-1.41-.27-2.13-.43-.72-.16-1.38-.41-1.98-.76-.6-.34-1.08-.8-1.45-1.38-.37-.58-.56-1.34-.56-2.28Z"/><path d="M121.67,69.98h-5.41v-3.22h14.82v3.22h-5.41v12.86h-4.01v-12.86Z"/><path d="M136.11,66.76h12.55v3.36h-8.52v3.26h7.02v2.88h-7.02v3.21h8.52v3.36h-12.55v-16.08Z"/><path d="M154.58,66.76h12.55v3.36h-8.52v3.26h7.02v2.88h-7.02v3.21h8.52v3.36h-12.55v-16.08Z"/><path d="M173.05,66.76h4.03v12.72h7.22v3.36h-11.25v-16.08Z"/><path d="M202.26,66.76h5.59l3.9,8.81,3.9-8.81h5.59v16.08h-3.95v-11.47l-3.67,8.4h-3.75l-3.65-8.4v11.47h-3.95v-16.08Z"/><path d="M227.87,66.76h4.03v16.08h-4.03v-16.08Z"/><path d="M238.54,66.76h4.03v12.72h7.22v3.36h-11.25v-16.08Z"/><path d="M255.25,66.76h4.03v12.72h7.22v3.36h-11.25v-16.08Z"/><path d="M271.63,71.51c0-1.6.58-2.83,1.75-3.7s2.83-1.3,4.99-1.3,3.89.46,5.04,1.39,1.74,2.22,1.77,3.89h-3.98c-.02-.72-.28-1.27-.78-1.64-.5-.38-1.23-.56-2.18-.56-.83,0-1.48.15-1.94.46-.46.3-.69.72-.69,1.25,0,.34.09.62.28.85.19.23.44.43.75.59.31.16.68.29,1.1.4.42.1.85.2,1.31.28.71.14,1.45.3,2.22.47.77.17,1.47.42,2.1.76.64.34,1.16.78,1.57,1.34.41.56.61,1.3.61,2.23,0,1.47-.57,2.65-1.72,3.54s-2.91,1.33-5.29,1.33-4.26-.47-5.47-1.42c-1.22-.94-1.82-2.22-1.82-3.84h3.98c.07.72.39,1.27.96,1.64.57.38,1.36.56,2.39.56.92,0,1.63-.15,2.13-.46.5-.3.75-.72.75-1.25,0-.34-.1-.61-.29-.83-.2-.22-.46-.4-.8-.54s-.74-.26-1.19-.35c-.45-.09-.92-.17-1.42-.25-.7-.13-1.41-.27-2.13-.43-.72-.16-1.38-.41-1.98-.76-.6-.34-1.08-.8-1.45-1.38-.37-.58-.56-1.34-.56-2.28Z"/></g>
</svg>
